<svg id="Add_one_more" data-name="Add one more" xmlns="http://www.w3.org/2000/svg" width="255" height="143" viewBox="0 0 255 143">
  <g id="BG" fill="#fff" stroke="#d8dce9" stroke-width="1" stroke-dasharray="4">
    <rect width="255" height="143" rx="2" stroke="none"/>
    <rect x="0.5" y="0.5" width="254" height="142" rx="1.5" fill="none"/>
  </g>
  <g id="Group_1" data-name="Group 1" transform="translate(10 -9.11)">
    <text id="Select_car" data-name="Select car" transform="translate(84 116)" fill="#9eacc7" font-size="14" font-family="SegoeUI, Segoe UI" letter-spacing="0.008em"><tspan x="0" y="0">Select car</tspan></text>
    <g id="Add" transform="translate(91 43.11)">
      <path id="Path_79" data-name="Path 79" d="M0,0H36.063V36.063H0Z" transform="translate(8.968 8.968)" fill="none"/>
      <g id="Path_80" data-name="Path 80" transform="translate(-2 -2)" fill="none">
        <path d="M29,2A27,27,0,1,0,56,29,27.01,27.01,0,0,0,29,2Z" stroke="none"/>
        <path d="M 28.99999237060547 3.000003814697266 C 25.49166107177734 3.000003814697266 22.08793258666992 3.687633514404297 18.88336181640625 5.043800354003906 C 15.78770065307617 6.3538818359375 13.00687026977539 8.229343414306641 10.61811065673828 10.61811065673828 C 8.229343414306641 13.00687026977539 6.3538818359375 15.78770065307617 5.043800354003906 18.88336181640625 C 3.687633514404297 22.08793258666992 3.000003814697266 25.49166107177734 3.000003814697266 28.99999237060547 C 3.000003814697266 32.50833129882813 3.687633514404297 35.91206359863281 5.043800354003906 39.11664199829102 C 6.3538818359375 42.2122917175293 8.229343414306641 44.99313354492188 10.61811065673828 47.38189315795898 C 13.00687026977539 49.77066040039063 15.78770065307617 51.64612197875977 18.88336181640625 52.95620346069336 C 22.08793258666992 54.31237030029297 25.49166107177734 55 28.99999237060547 55 C 32.50833129882813 55 35.91206359863281 54.31237030029297 39.11664199829102 52.95620346069336 C 42.2122917175293 51.64612197875977 44.99313354492188 49.77066040039063 47.38189315795898 47.38189315795898 C 49.77066040039063 44.99313354492188 51.64612197875977 42.2122917175293 52.95620346069336 39.11664199829102 C 54.31237030029297 35.91206359863281 55 32.50833129882813 55 28.99999237060547 C 55 25.49165344238281 54.31237030029297 22.08792114257813 52.95620346069336 18.88335037231445 C 51.64612197875977 15.78770065307617 49.77066040039063 13.00686264038086 47.38189315795898 10.61810302734375 C 44.99313354492188 8.229343414306641 42.2122917175293 6.353870391845703 39.11664199829102 5.043800354003906 C 35.91206359863281 3.687633514404297 32.50833129882813 3.000003814697266 28.99999237060547 3.000003814697266 M 28.99999237060547 2.000003814697266 C 43.90400314331055 2.000003814697266 56 14.09599304199219 56 28.99999237060547 C 56 43.90400314331055 43.90400314331055 56 28.99999237060547 56 C 14.09600067138672 56 2.000003814697266 43.90400314331055 2.000003814697266 28.99999237060547 C 2.000003814697266 14.09600067138672 14.09600067138672 2.000003814697266 28.99999237060547 2.000003814697266 Z" stroke="none" fill="#d9dde9"/>
      </g>
      <path id="Path_80-2" data-name="Path 80" d="M21.947,15.968H15.968v5.979H12.979V15.968H7V12.979h5.979V7h2.989v5.979h5.979Z" transform="translate(12.526 12.526)" fill="#d8dce9"/>
    </g>
  </g>
</svg>
