<svg xmlns="http://www.w3.org/2000/svg" width="32" height="32" viewBox="0 0 32 32">
  <g id="Facebook">
    <path id="Path_82" data-name="Path 82" d="M297.277,508.668q-3.2.521-6.422.961Q294.078,509.189,297.277,508.668Zm0,0" transform="translate(-276.14 -480)" fill="#9eacc7"/>
    <path id="Path_83" data-name="Path 83" d="M302.4,507.793c-1.02.188-2.039.359-3.059.535C300.359,508.152,301.378,507.98,302.4,507.793Zm0,0" transform="translate(-282.317 -480)" fill="#9eacc7"/>
    <path id="Path_84" data-name="Path 84" d="M285.137,510.34q-3.744.422-7.527.742Q281.389,510.766,285.137,510.34Zm0,0" transform="translate(-264.142 -480)" fill="#9eacc7"/>
    <path id="Path_85" data-name="Path 85" d="M290.055,509.738c-1.2.16-2.406.309-3.609.449C287.649,510.047,288.856,509.9,290.055,509.738Zm0,0" transform="translate(-270.449 -480)" fill="#9eacc7"/>
    <path id="Path_86" data-name="Path 86" d="M309.367,506.41c-.9.191-1.8.383-2.7.566C307.566,506.793,308.469,506.6,309.367,506.41Zm0,0" transform="translate(-289.023 -480)" fill="#9eacc7"/>
    <path id="Path_87" data-name="Path 87" d="M326.664,502.113c-.727.207-1.453.4-2.18.605C325.211,502.515,325.937,502.32,326.664,502.113Zm0,0" transform="translate(-305.505 -480.632)" fill="#9eacc7"/>
    <path id="Path_88" data-name="Path 88" d="M321.434,503.543c-.789.207-1.582.418-2.375.617Q320.248,503.861,321.434,503.543Zm0,0" transform="translate(-300.512 -480.534)" fill="#9eacc7"/>
    <path id="Path_89" data-name="Path 89" d="M314.59,505.254c-.836.2-1.68.379-2.523.566C312.91,505.633,313.754,505.449,314.59,505.254Zm0,0" transform="translate(-294.011 -480.42)" fill="#9eacc7"/>
    <path id="Path_90" data-name="Path 90" d="M277.527,511.09q-2.021.17-4.047.3Q275.507,511.26,277.527,511.09Zm0,0" transform="translate(-258.43 -480)" fill="#9eacc7"/>
    <path id="Path_91" data-name="Path 91" d="M32,16A16,16,0,1,0,16,32c.094,0,.188,0,.281,0V19.541H12.844V15.535h3.438V12.587c0-3.419,2.087-5.28,5.137-5.28a28.3,28.3,0,0,1,3.082.157v3.573H22.4c-1.659,0-1.98.789-1.98,1.946v2.552h3.967l-.517,4.006h-3.45V31.382A16.009,16.009,0,0,0,32,16Zm0,0" fill="#9eacc7"/>
    <path id="Path_92" data-name="Path 92" d="M272.914,511.43q-4,.258-8.023.4Q268.916,511.694,272.914,511.43Zm0,0" transform="translate(-252.288 -480)" fill="#9eacc7"/>
    <path id="Path_93" data-name="Path 93" d="M264.754,511.836q-2.121.07-4.25.105Q262.631,511.906,264.754,511.836Zm0,0" transform="translate(-246.267 -480)" fill="#9eacc7"/>
  </g>
</svg>
